<svg class="dark:fill-gray-100 w-6 h-6"
        width="500.000000pt" height="500.000000pt" viewBox="0 0 500.000000 500.000000"
        preserveAspectRatio="xMidYMid meet">
    <g transform="translate(0.000000,500.000000) scale(0.100000,-0.100000)"
       stroke="none">
        <path d="M2756 3481 c-38 -11 -89 -27 -113 -36 l-45 -17 6 -42 c30 -184 34
-439 11 -605 -8 -57 -13 -106 -11 -109 3 -2 20 1 38 8 l33 11 88 -93 c88 -93
207 -236 263 -315 l29 -43 188 0 c137 0 187 3 187 12 0 22 -95 103 -136 117
-38 12 -42 18 -59 70 -23 73 -75 172 -129 244 l-43 58 12 72 c30 173 27 415
-6 589 -11 54 -14 58 -53 74 -62 25 -178 28 -260 5z"/>
        <path d="M2193 3478 c120 -276 168 -475 174 -724 l5 -172 72 26 c39 14 73 27
74 28 2 1 13 53 24 116 27 152 29 417 4 575 l-18 112 -47 15 c-107 35 -299 50
-288 24z"/>
        <path d="M2017 3446 c-67 -24 -181 -86 -225 -123 -17 -14 -24 -36 -32 -105
-19 -156 13 -323 100 -533 63 -149 97 -262 111 -358 l13 -87 208 0 c114 0 208
3 208 8 0 34 -92 112 -132 112 -22 0 -22 -2 2 90 11 41 25 127 32 190 9 97 9
135 -5 241 -28 215 -148 581 -192 586 -11 2 -51 -8 -88 -21z"/>
        <path d="M3147 3348 c11 -70 10 -444 0 -533 l-9 -71 193 -83 c146 -63 201 -82
224 -78 47 8 129 50 133 68 2 9 -22 55 -52 101 -51 79 -55 88 -46 119 13 45 4
92 -32 161 l-30 57 21 27 c27 34 26 47 -2 79 -25 30 -77 36 -116 15 -19 -10
-28 -6 -74 33 -47 40 -173 133 -205 151 -10 6 -11 -3 -5 -46z"/>
        <path d="M1644 3170 c-54 -71 -89 -142 -103 -208 -15 -70 -14 -82 5 -82 11 0
14 -6 9 -22 -14 -45 -71 -145 -153 -266 -46 -68 -82 -130 -80 -137 2 -7 45
-61 96 -119 l93 -107 57 3 57 3 3 37 c2 22 -5 52 -17 76 l-20 40 82 40 c95 46
171 107 164 131 -3 9 -24 61 -47 116 -64 154 -91 269 -98 420 l-7 130 -41 -55z"/>
        <path d="M2553 2578 l-83 -30 0 -154 0 -154 186 0 185 0 -6 23 c-15 47 -60 93
-110 110 -6 2 1 26 15 53 13 27 26 52 28 55 5 10 -109 129 -122 128 -6 -1 -48
-15 -93 -31z"/>
    </g>
</svg>
